TITLE ""
FILE "Step2_Track02.mp3" MP3
  TRACK 01 AUDIO
    TITLE "Step2_Track02_01"
    INDEX 01 00:00:00
  TRACK 02 AUDIO
    TITLE "Step2_Track02_02"
    INDEX 01 00:00:22
  TRACK 03 AUDIO
    TITLE "Step2_Track02_03"
    INDEX 01 00:01:49
  TRACK 04 AUDIO
    TITLE "Step2_Track02_04"
    INDEX 01 00:02:17
  TRACK 05 AUDIO
    TITLE "Step2_Track02_05"
    INDEX 01 00:03:18
  TRACK 06 AUDIO
    TITLE "Step2_Track02_06"
    INDEX 01 00:03:26
  TRACK 07 AUDIO
    TITLE "Step2_Track02_07"
    INDEX 01 00:05:68
  TRACK 08 AUDIO
    TITLE "Step2_Track02_08"
    INDEX 01 00:06:19
  TRACK 09 AUDIO
    TITLE "Step2_Track02_09"
    INDEX 01 00:07:16
  TRACK 10 AUDIO
    TITLE "Step2_Track02_10"
    INDEX 01 00:07:30
  TRACK 11 AUDIO
    TITLE "Step2_Track02_11"
    INDEX 01 00:09:29
  TRACK 12 AUDIO
    TITLE "Step2_Track02_12"
    INDEX 01 00:09:62
  TRACK 13 AUDIO
    TITLE "Step2_Track02_13"
    INDEX 01 00:10:62
  TRACK 14 AUDIO
    TITLE "Step2_Track02_14"
    INDEX 01 00:10:69
  TRACK 15 AUDIO
    TITLE "Step2_Track02_15"
    INDEX 01 00:12:35
  TRACK 16 AUDIO
    TITLE "Step2_Track02_16"
    INDEX 01 00:12:68
  TRACK 17 AUDIO
    TITLE "Step2_Track02_17"
    INDEX 01 00:13:66
  TRACK 18 AUDIO
    TITLE "Step2_Track02_18"
    INDEX 01 00:14:12
  TRACK 19 AUDIO
    TITLE "Step2_Track02_19"
    INDEX 01 00:16:49
  TRACK 20 AUDIO
    TITLE "Step2_Track02_20"
    INDEX 01 00:17:01
  TRACK 21 AUDIO
    TITLE "Step2_Track02_21"
    INDEX 01 00:17:71
  TRACK 22 AUDIO
    TITLE "Step2_Track02_22"
    INDEX 01 00:18:04
  TRACK 23 AUDIO
    TITLE "Step2_Track02_23"
    INDEX 01 00:20:01
  TRACK 24 AUDIO
    TITLE "Step2_Track02_24"
    INDEX 01 00:20:27
  TRACK 25 AUDIO
    TITLE "Step2_Track02_25"
    INDEX 01 00:21:30
  TRACK 26 AUDIO
    TITLE "Step2_Track02_26"
    INDEX 01 00:21:42
  TRACK 27 AUDIO
    TITLE "Step2_Track02_27"
    INDEX 01 00:23:29
  TRACK 28 AUDIO
    TITLE "Step2_Track02_28"
    INDEX 01 00:23:52
  TRACK 29 AUDIO
    TITLE "Step2_Track02_29"
    INDEX 01 00:24:60
  TRACK 30 AUDIO
    TITLE "Step2_Track02_30"
    INDEX 01 00:24:73
  TRACK 31 AUDIO
    TITLE "Step2_Track02_31"
    INDEX 01 00:26:59
  TRACK 32 AUDIO
    TITLE "Step2_Track02_32"
    INDEX 01 00:27:09
  TRACK 33 AUDIO
    TITLE "Step2_Track02_33"
    INDEX 01 00:28:01
  TRACK 34 AUDIO
    TITLE "Step2_Track02_34"
    INDEX 01 00:28:24
  TRACK 35 AUDIO
    TITLE "Step2_Track02_35"
    INDEX 01 00:30:00
  TRACK 36 AUDIO
    TITLE "Step2_Track02_36"
    INDEX 01 00:30:45
  TRACK 37 AUDIO
    TITLE "Step2_Track02_37"
    INDEX 01 00:31:48
  TRACK 38 AUDIO
    TITLE "Step2_Track02_38"
    INDEX 01 00:31:60
  TRACK 39 AUDIO
    TITLE "Step2_Track02_39"
    INDEX 01 00:33:22
  TRACK 40 AUDIO
    TITLE "Step2_Track02_40"
    INDEX 01 00:33:53
  TRACK 41 AUDIO
    TITLE "Step2_Track02_41"
    INDEX 01 00:34:50
  TRACK 42 AUDIO
    TITLE "Step2_Track02_42"
    INDEX 01 00:34:74
  TRACK 43 AUDIO
    TITLE "Step2_Track02_43"
    INDEX 01 00:37:02
